<svg width="421" height="227" viewBox="0 0 421 227" fill="none" xmlns="http://www.w3.org/2000/svg">
<path d="M18.048 133.024C15.4027 133.024 13.3547 132.299 11.904 130.848C10.5387 129.312 9.856 127.221 9.856 124.576V49.184C9.856 46.4533 10.5387 44.3627 11.904 42.912C13.3547 41.4613 15.4027 40.736 18.048 40.736C20.6933 40.736 22.6987 41.4613 24.064 42.912C25.5147 44.3627 26.24 46.4533 26.24 49.184V79.392H72.704V49.184C72.704 46.4533 73.3867 44.3627 74.752 42.912C76.2027 41.4613 78.2507 40.736 80.896 40.736C83.5413 40.736 85.5467 41.4613 86.912 42.912C88.3627 44.3627 89.088 46.4533 89.088 49.184V124.576C89.088 127.221 88.3627 129.312 86.912 130.848C85.5467 132.299 83.5413 133.024 80.896 133.024C78.2507 133.024 76.2027 132.299 74.752 130.848C73.3867 129.312 72.704 127.221 72.704 124.576V93.088H26.24V124.576C26.24 127.221 25.5573 129.312 24.192 130.848C22.8267 132.299 20.7787 133.024 18.048 133.024ZM162.104 133.28C153.4 133.28 145.763 131.36 139.192 127.52C132.707 123.68 127.672 118.304 124.088 111.392C120.504 104.395 118.712 96.2027 118.712 86.816C118.712 79.7333 119.736 73.376 121.784 67.744C123.832 62.0267 126.733 57.1627 130.488 53.152C134.328 49.056 138.893 45.9413 144.184 43.808C149.56 41.5893 155.533 40.48 162.104 40.48C170.893 40.48 178.531 42.4 185.016 46.24C191.501 49.9947 196.536 55.328 200.12 62.24C203.704 69.152 205.496 77.3013 205.496 86.688C205.496 93.7707 204.472 100.171 202.424 105.888C200.376 111.605 197.432 116.512 193.592 120.608C189.837 124.704 185.272 127.861 179.896 130.08C174.605 132.213 168.675 133.28 162.104 133.28ZM162.104 119.2C167.651 119.2 172.344 117.92 176.184 115.36C180.109 112.8 183.096 109.088 185.144 104.224C187.277 99.36 188.344 93.5573 188.344 86.816C188.344 76.576 186.04 68.64 181.432 63.008C176.909 57.376 170.467 54.56 162.104 54.56C156.643 54.56 151.949 55.84 148.024 58.4C144.099 60.8747 141.069 64.544 138.936 69.408C136.888 74.1867 135.864 79.9893 135.864 86.816C135.864 96.9707 138.168 104.907 142.776 110.624C147.384 116.341 153.827 119.2 162.104 119.2ZM243.148 133.024C240.503 133.024 238.455 132.299 237.004 130.848C235.639 129.312 234.956 127.221 234.956 124.576V50.08C234.956 47.3493 235.681 45.3013 237.132 43.936C238.583 42.4853 240.631 41.76 243.276 41.76H274.124C284.023 41.76 291.66 44.1493 297.036 48.928C302.412 53.6213 305.1 60.2347 305.1 68.768C305.1 74.3147 303.863 79.0933 301.388 83.104C298.999 87.1147 295.5 90.1867 290.892 92.32C286.284 94.4533 280.695 95.52 274.124 95.52L275.276 93.6H279.5C282.999 93.6 286.028 94.4533 288.588 96.16C291.233 97.8667 293.537 100.555 295.5 104.224L305.1 122.016C306.124 123.808 306.593 125.557 306.508 127.264C306.423 128.971 305.783 130.379 304.588 131.488C303.393 132.512 301.644 133.024 299.34 133.024C297.036 133.024 295.159 132.555 293.708 131.616C292.257 130.592 290.977 129.056 289.868 127.008L276.94 103.2C275.404 100.299 273.569 98.3787 271.436 97.44C269.388 96.416 266.743 95.904 263.5 95.904H251.34V124.576C251.34 127.221 250.657 129.312 249.292 130.848C247.927 132.299 245.879 133.024 243.148 133.024ZM251.34 83.744H271.308C277.196 83.744 281.633 82.5493 284.62 80.16C287.692 77.6853 289.228 74.016 289.228 69.152C289.228 64.3733 287.692 60.7893 284.62 58.4C281.633 55.9253 277.196 54.688 271.308 54.688H251.34V83.744ZM334.777 133.024C332.729 133.024 331.065 132.555 329.785 131.616C328.59 130.677 327.865 129.44 327.609 127.904C327.353 126.283 327.652 124.491 328.505 122.528L362.297 47.648C363.406 45.1733 364.729 43.424 366.265 42.4C367.886 41.2907 369.721 40.736 371.769 40.736C373.732 40.736 375.481 41.2907 377.017 42.4C378.638 43.424 380.004 45.1733 381.113 47.648L415.033 122.528C415.972 124.491 416.313 126.283 416.057 127.904C415.801 129.525 415.076 130.805 413.881 131.744C412.686 132.597 411.108 133.024 409.145 133.024C406.756 133.024 404.878 132.469 403.513 131.36C402.233 130.165 401.081 128.373 400.057 125.984L391.737 106.656L398.649 111.136H344.633L351.545 106.656L343.353 125.984C342.244 128.459 341.092 130.251 339.897 131.36C338.702 132.469 336.996 133.024 334.777 133.024ZM371.513 59.552L353.593 102.176L350.265 98.08H393.017L389.817 102.176L371.769 59.552H371.513Z" fill="#E5E7EB"/>
<path d="M131.777 191C130.711 191 129.879 190.701 129.281 190.104C128.684 189.507 128.385 188.675 128.385 187.608V149.016C128.385 147.907 128.663 147.075 129.217 146.52C129.815 145.923 130.647 145.624 131.713 145.624C132.78 145.624 133.591 145.923 134.145 146.52C134.743 147.075 135.041 147.907 135.041 149.016V185.304H154.881C155.82 185.304 156.545 185.56 157.057 186.072C157.569 186.541 157.826 187.224 157.826 188.12C157.826 189.016 157.569 189.72 157.057 190.232C156.545 190.744 155.82 191 154.881 191H131.777ZM172.594 191.384C171.57 191.384 170.781 191.085 170.226 190.488C169.671 189.848 169.394 188.973 169.394 187.864V162.904C169.394 161.795 169.671 160.941 170.226 160.344C170.781 159.747 171.57 159.448 172.594 159.448C173.618 159.448 174.407 159.747 174.962 160.344C175.559 160.941 175.858 161.795 175.858 162.904V187.864C175.858 188.973 175.581 189.848 175.026 190.488C174.471 191.085 173.661 191.384 172.594 191.384ZM172.594 152.792C171.314 152.792 170.311 152.472 169.586 151.832C168.903 151.192 168.562 150.296 168.562 149.144C168.562 147.949 168.903 147.053 169.586 146.456C170.311 145.816 171.314 145.496 172.594 145.496C173.874 145.496 174.855 145.816 175.538 146.456C176.263 147.053 176.626 147.949 176.626 149.144C176.626 150.296 176.263 151.192 175.538 151.832C174.855 152.472 173.874 152.792 172.594 152.792ZM205.501 203.096C203.197 203.096 200.957 202.861 198.781 202.392C196.647 201.923 194.706 201.155 192.957 200.088C192.317 199.747 191.89 199.32 191.677 198.808C191.463 198.339 191.399 197.848 191.485 197.336C191.613 196.824 191.847 196.376 192.189 195.992C192.53 195.608 192.935 195.352 193.405 195.224C193.917 195.096 194.45 195.181 195.005 195.48C196.882 196.504 198.653 197.187 200.317 197.528C202.023 197.912 203.602 198.104 205.053 198.104C208.039 198.104 210.279 197.336 211.773 195.8C213.266 194.307 214.013 192.088 214.013 189.144V182.616H214.589C213.949 184.963 212.605 186.819 210.557 188.184C208.509 189.549 206.141 190.232 203.453 190.232C200.637 190.232 198.183 189.592 196.093 188.312C194.002 186.989 192.381 185.176 191.229 182.872C190.077 180.525 189.501 177.795 189.501 174.68C189.501 172.333 189.821 170.221 190.461 168.344C191.143 166.467 192.082 164.845 193.277 163.48C194.514 162.115 195.986 161.069 197.693 160.344C199.442 159.576 201.362 159.192 203.453 159.192C206.183 159.192 208.551 159.875 210.557 161.24C212.605 162.605 213.927 164.461 214.525 166.808L213.885 167.896V162.584C213.885 161.517 214.162 160.707 214.717 160.152C215.314 159.597 216.103 159.32 217.085 159.32C218.109 159.32 218.898 159.597 219.453 160.152C220.007 160.707 220.285 161.517 220.285 162.584V188.376C220.285 193.24 219.026 196.909 216.509 199.384C213.991 201.859 210.322 203.096 205.501 203.096ZM204.989 185.176C206.866 185.176 208.466 184.749 209.789 183.896C211.111 183.043 212.135 181.827 212.861 180.248C213.586 178.669 213.949 176.813 213.949 174.68C213.949 171.48 213.138 168.941 211.517 167.064C209.938 165.187 207.762 164.248 204.989 164.248C203.154 164.248 201.575 164.675 200.253 165.528C198.93 166.381 197.885 167.597 197.117 169.176C196.391 170.712 196.029 172.547 196.029 174.68C196.029 177.923 196.839 180.483 198.461 182.36C200.082 184.237 202.258 185.176 204.989 185.176ZM238.956 191.448C237.932 191.448 237.143 191.171 236.588 190.616C236.034 190.019 235.756 189.208 235.756 188.184V148.696C235.756 147.629 236.034 146.819 236.588 146.264C237.143 145.709 237.932 145.432 238.956 145.432C239.98 145.432 240.77 145.709 241.324 146.264C241.922 146.819 242.22 147.629 242.22 148.696V166.424H241.324C242.263 164.035 243.735 162.243 245.74 161.048C247.746 159.811 250.05 159.192 252.652 159.192C255.127 159.192 257.175 159.661 258.796 160.6C260.46 161.496 261.698 162.883 262.508 164.76C263.319 166.595 263.724 168.92 263.724 171.736V188.184C263.724 189.208 263.447 190.019 262.892 190.616C262.338 191.171 261.548 191.448 260.524 191.448C259.458 191.448 258.647 191.171 258.092 190.616C257.538 190.019 257.26 189.208 257.26 188.184V172.12C257.26 169.432 256.727 167.469 255.66 166.232C254.636 164.995 253.015 164.376 250.796 164.376C248.194 164.376 246.103 165.187 244.524 166.808C242.988 168.429 242.22 170.605 242.22 173.336V188.184C242.22 190.36 241.132 191.448 238.956 191.448ZM292.343 191.576C289.783 191.576 287.629 191.128 285.879 190.232C284.13 189.336 282.829 188.013 281.975 186.264C281.122 184.515 280.695 182.381 280.695 179.864V164.76H276.855C276.002 164.76 275.341 164.547 274.871 164.12C274.402 163.651 274.167 163.032 274.167 162.264C274.167 161.453 274.402 160.835 274.871 160.408C275.341 159.981 276.002 159.768 276.855 159.768H280.695V153.176C280.695 152.109 280.973 151.299 281.527 150.744C282.125 150.189 282.935 149.912 283.959 149.912C284.983 149.912 285.773 150.189 286.327 150.744C286.882 151.299 287.159 152.109 287.159 153.176V159.768H294.647C295.501 159.768 296.162 159.981 296.631 160.408C297.101 160.835 297.335 161.453 297.335 162.264C297.335 163.032 297.101 163.651 296.631 164.12C296.162 164.547 295.501 164.76 294.647 164.76H287.159V179.352C287.159 181.613 287.629 183.32 288.567 184.472C289.549 185.624 291.127 186.2 293.303 186.2C294.071 186.2 294.733 186.136 295.287 186.008C295.885 185.837 296.375 185.731 296.759 185.688C297.229 185.688 297.613 185.859 297.911 186.2C298.21 186.499 298.359 187.096 298.359 187.992C298.359 188.632 298.231 189.229 297.975 189.784C297.762 190.339 297.357 190.701 296.759 190.872C296.247 191.043 295.543 191.192 294.647 191.32C293.794 191.491 293.026 191.576 292.343 191.576Z" fill="#E5E7EB"/>
</svg>
